<svg width="320" height="83" viewBox="0 0 320 83" fill="none" xmlns="http://www.w3.org/2000/svg">
<path d="M97.9912 41.5082C101.12 40.1215 102.684 37.5467 102.684 33.7837C102.684 30.8119 101.707 28.6341 99.7512 27.0489C97.7956 25.4637 94.8623 24.6726 91.3393 24.6726H78.2341V61.1141H92.1215C96.0326 61.1141 99.1615 60.1245 101.316 58.3408C103.467 56.557 104.64 53.9822 104.64 50.6163C104.64 48.4385 104.053 46.6548 102.88 44.8741C101.511 43.2889 99.9467 42.2993 97.9912 41.5082ZM83.7126 29.6267H90.3615C92.5126 29.6267 94.0771 30.0237 95.0549 30.8148C96.0326 31.6059 96.6193 32.7941 96.6193 34.3793C96.6193 36.3585 96.0326 37.7452 95.0549 38.5393C93.8815 39.5289 92.3171 39.9259 89.9704 39.9259H83.7126V29.6267ZM96.6223 54.7793C95.4489 55.7689 93.8845 56.1659 91.7334 56.1659H83.7126V44.6785H91.1467C95.8401 44.6785 98.3852 46.6578 98.3852 50.4208C98.3852 52.4 97.7986 53.7867 96.6252 54.7793" fill="#3075B2"/>
<path d="M127.147 40.2489C126.364 38.9097 125.191 37.9526 123.822 37.3778C122.453 36.6134 120.889 36.4208 119.129 36.4208C116.978 36.4208 115.022 36.9956 113.067 38.1452C111.307 39.2949 109.938 40.8267 108.96 42.7408C107.982 44.6549 107.591 46.7615 107.591 48.8682C107.591 51.3571 108.178 53.4637 109.156 55.3778C110.133 57.2919 111.502 58.6341 113.262 59.7808C115.022 60.7378 116.978 61.3126 119.129 61.3126C123.04 61.3126 125.778 59.9734 127.541 57.2919L127.55 60.806H132.818V36.9452H127.517L127.15 40.2489H127.147ZM125.387 54.0356C124.018 55.3748 122.258 56.1423 120.107 56.1423C117.956 56.1423 116.196 55.3778 114.827 54.0356C113.458 52.6963 112.871 50.7793 112.871 48.483C112.871 46.1867 113.458 44.4623 114.827 42.9304C116.196 41.5911 117.956 40.8237 120.107 40.8237C122.258 40.8237 124.018 41.5882 125.387 42.9304C126.756 44.2697 127.342 46.1867 127.342 48.483C127.342 50.7793 126.56 52.6963 125.387 54.0356Z" fill="#3075B2"/>
<path d="M144.213 36.9452H138.738V60.8089H144.213V36.9452Z" fill="#3075B2"/>
<path d="M141.476 24.646C140.498 24.646 139.716 25.0371 139.129 25.6238C138.542 26.2104 138.151 26.9927 138.151 27.9704C138.151 28.9482 138.542 29.7304 139.129 30.3171C139.716 30.9038 140.498 31.2949 141.476 31.2949C142.453 31.2949 143.236 30.9038 143.822 30.3171C144.409 29.7304 144.8 28.9482 144.8 27.9704C144.8 26.9927 144.409 26.2104 143.822 25.6238C143.236 25.0371 142.453 24.646 141.476 24.646Z" fill="#3075B2"/>
<path d="M162.16 36.5541C160.596 36.5541 159.227 36.9452 158.053 37.7274C156.88 38.5096 155.902 39.4874 155.316 41.0519V36.9452H150.036V60.8089H155.511V49.6593C155.511 47.117 156.098 45.1615 157.076 43.7926C158.053 42.4237 159.618 41.6415 161.573 41.6415C162.551 41.6415 163.529 41.837 164.311 42.2282L164.898 37.1437C164.507 36.9482 164.116 36.9482 163.529 36.7526C162.942 36.557 162.551 36.557 162.16 36.557" fill="#3075B2"/>
<path d="M201.961 46.557C200.785 46.2281 199.813 46.08 199.025 45.7333C198.43 45.3748 197.84 45.2089 197.63 44.8326C197.419 44.4563 197.206 44.077 197.179 43.4992C197.141 42.7259 197.499 42.1274 198.249 41.7037C198.998 41.28 199.955 41.04 201.304 40.9718C202.459 40.9155 203.627 41.0518 204.8 41.3807C205.976 41.7096 207.15 42.0414 208.142 42.5718L208.696 38.0889C207.704 37.5555 206.723 37.2177 205.161 36.9066C203.793 36.5866 202.435 36.4592 200.895 36.5333C198.006 36.6755 195.914 37.357 194.246 38.797C192.578 40.234 191.893 42.0118 191.997 44.1363C192.092 46.0681 192.735 47.3926 193.95 48.4948C195.161 49.597 197.138 50.4711 199.873 51.1111C201.241 51.4311 202.222 51.7718 203.001 51.9259C203.793 52.2755 204.187 52.4503 204.59 52.8177C204.993 53.1851 205.013 53.5733 205.052 54.3437C205.138 56.0829 203.641 57.1259 200.367 57.2859C199.212 57.3422 197.852 57.2148 196.284 56.7111C194.915 56.3911 193.733 55.8666 192.539 55.1496L191.985 59.6326C192.987 60.3585 194.16 60.6874 195.721 60.9985C197.283 61.3096 198.833 61.4281 200.566 61.3422C203.647 61.1911 205.932 60.4977 207.793 59.0518C209.461 57.6148 210.338 55.8281 210.234 53.7007C210.139 51.7689 209.484 50.2518 208.08 49.1555C207.07 48.237 204.904 47.3748 201.964 46.5481" fill="#3075B2"/>
<path d="M242.125 29.4785C238.605 26.2726 233.588 24.5778 227.621 24.5778H213.576V61.6444H227.058C233.573 61.6444 238.581 59.9941 241.941 56.7407C245.553 53.4281 247.31 48.9392 247.31 43.0252C247.502 37.3659 245.757 32.8089 242.13 29.4785H242.125ZM238.584 43.2059C238.584 50.6459 234.812 54.2607 227.055 54.2607H222.296V32.1541H227.245C234.981 32.1541 238.584 35.6681 238.584 43.2089V43.2059Z" fill="#3075B2"/>
<path d="M291.541 36.6844L286.504 51.2622L281.828 36.6844H273.034L282.51 61.3393H290.288L299.953 36.6844H291.541Z" fill="#3075B2"/>
<path d="M267.576 38.234C265.873 37.28 263.873 36.797 261.636 36.797C259.215 36.797 257.052 37.36 255.209 38.4681C253.366 39.5763 251.926 41.114 250.925 43.034C249.932 44.9422 249.428 47.117 249.428 49.4992C249.428 52.0711 250.012 54.3466 251.165 56.2607C252.32 58.1837 253.962 59.6651 256.039 60.6637C258.092 61.6533 260.003 62.154 262.735 62.154C264.471 62.154 265.639 61.9822 267.224 61.6474C268.827 61.3066 270.205 60.8207 271.325 60.1985L271.633 60.0266L270.865 54.0474L270.207 54.3851C269.203 54.9037 268.056 55.3037 266.806 55.5763C265.547 55.8518 264.75 55.9911 263.41 55.9911C259.529 55.9911 257.719 54.6518 256.83 51.9022H272.72L272.8 51.4785C272.954 50.6429 273.034 49.7037 273.034 48.6874C273.034 46.2755 272.551 44.1511 271.603 42.3733C270.646 40.5866 269.292 39.1911 267.579 38.2311L267.576 38.234ZM265.95 46.5037H256.744C257.031 45.3274 257.538 44.4 258.258 43.7392C259.096 42.9688 260.142 42.5926 261.458 42.5926C262.773 42.5926 263.837 42.9629 264.628 43.7274C265.31 44.3851 265.754 45.3185 265.95 46.5007" fill="#3075B2"/>
<path d="M183.87 38.3703C182.181 37.4222 180.246 36.9481 178.068 36.9481C175.668 36.9481 173.55 37.5081 171.718 38.6311C169.887 39.7511 168.474 41.277 167.478 43.2029C166.483 45.1318 165.985 47.3096 165.985 49.7392C165.985 52.3289 166.554 54.5866 167.689 56.5126C168.827 58.4385 170.421 59.8992 172.474 60.8948C174.527 61.8903 176.364 62.3881 179.081 62.3881C180.755 62.3881 181.852 62.2044 183.464 61.8429C185.075 61.4815 186.465 60.9837 187.633 60.3526L187.064 56.0889C184.536 57.3215 182.4 57.9377 179.555 57.9377C177.123 57.9377 175.704 57.3777 174.204 56.2548C172.705 55.1348 171.781 53.5466 171.434 51.4933H189.058C189.182 50.8948 189.247 49.994 189.247 48.794C189.247 46.394 188.773 44.2933 187.825 42.4948C186.877 40.6933 185.558 39.3215 183.87 38.3733V38.3703ZM171.387 47.3748C171.638 45.4163 172.335 43.9022 173.47 42.8266C174.607 41.754 176.074 41.2178 177.875 41.2178C179.677 41.2178 181.144 41.754 182.187 42.8266C183.23 43.9022 183.813 45.4163 183.941 47.3748H171.387Z" fill="#3075B2"/>
<path d="M56.9748 14.803H28.6963C21.0667 14.803 14.8682 20.9778 14.8682 28.6311V56.7082C14.8682 64.3378 21.0637 70.5363 28.6963 70.5363H56.9719C64.6015 70.5363 70.8 64.3408 70.8 56.7082V28.6311C70.8 20.9808 64.6045 14.803 56.9719 14.803H56.9748ZM26.0474 49.3719C20.1719 42.7378 20.5689 27.4756 30.7319 22.5748C35.8311 20.24 40.9126 25.123 37.9822 28.8504C30.7319 38.0385 26.0474 48.9956 26.0474 49.3748V49.3719ZM29.3748 49.3719C30.3526 47.2208 36.9867 33.5348 43.6415 27.0785C50.6963 20.0445 65.5585 34.9096 58.5067 41.9437C51.8519 48.5985 38.163 55.2534 36.2134 56.2311C32.8859 57.6059 28.003 52.7022 29.3778 49.3748L29.3748 49.3719ZM62.8119 54.8504C58.1274 65.0341 42.8652 65.4133 36.2104 59.5526C36.6074 59.5526 47.5674 54.8504 56.7526 47.8163C60.4593 44.6874 65.1645 49.9704 62.8119 54.8504Z" fill="#3075B2"/>
<path d="M305.129 56.3259C305.129 57.1585 305.007 57.8845 304.767 58.5037C304.527 59.1259 304.187 59.6474 303.748 60.0682C303.31 60.4919 302.788 60.8089 302.184 61.0222C301.576 61.2326 300.916 61.3393 300.202 61.3393C299.487 61.3393 298.803 61.2326 298.199 61.0222C297.591 60.8119 297.07 60.5037 296.634 60.1037C296.196 59.7037 295.852 59.2 295.606 58.5926C295.357 57.9882 295.233 57.2889 295.233 56.5008C295.233 55.7126 295.354 54.963 295.594 54.3437C295.834 53.7245 296.175 53.2059 296.613 52.7882C297.052 52.3704 297.57 52.0622 298.169 51.8578C298.767 51.6534 299.431 51.5526 300.163 51.5526C300.895 51.5526 301.544 51.6563 302.157 51.8578C302.77 52.0622 303.295 52.3645 303.733 52.7674C304.172 53.1704 304.516 53.6652 304.762 54.2578C305.01 54.8504 305.135 55.5378 305.135 56.3259H305.129ZM304.385 56.4148C304.385 55.6859 304.273 55.0489 304.045 54.5096C303.819 53.9704 303.511 53.523 303.126 53.1734C302.738 52.8237 302.29 52.56 301.778 52.3852C301.265 52.2104 300.726 52.1215 300.157 52.1215C299.588 52.1215 299.052 52.2015 298.548 52.3615C298.045 52.5215 297.6 52.7734 297.212 53.1171C296.824 53.4608 296.522 53.9052 296.302 54.4534C296.083 55.0015 295.973 55.6534 295.973 56.4119C295.973 57.1704 296.074 57.8015 296.279 58.3496C296.483 58.8978 296.77 59.3511 297.144 59.7067C297.517 60.0652 297.962 60.3348 298.48 60.5156C298.999 60.6993 299.57 60.7882 300.199 60.7882C300.767 60.7882 301.304 60.7052 301.807 60.5363C302.311 60.3674 302.756 60.1067 303.144 59.7482C303.532 59.3896 303.834 58.9393 304.053 58.3911C304.273 57.843 304.382 57.1822 304.382 56.4089L304.385 56.4148ZM298.406 53.6563H300.575C301.159 53.6563 301.609 53.8133 301.923 54.1274C302.237 54.4415 302.394 54.8326 302.394 55.2978C302.394 55.763 302.282 56.1037 302.053 56.3585C301.828 56.6134 301.567 56.8 301.277 56.9156L302.699 59.1704H301.627L300.379 57.0667H299.283V59.1704H298.406V53.6504V53.6563ZM299.283 56.3496H300.202C300.566 56.3496 300.868 56.2726 301.111 56.1185C301.354 55.9645 301.473 55.7067 301.473 55.3422C301.473 54.9778 301.375 54.7467 301.176 54.6074C300.978 54.4682 300.699 54.4 300.332 54.4H299.28V56.3496H299.283Z" fill="#3075B2"/>
</svg>
