<svg width="353" height="198" viewBox="0 0 353 198" fill="none" xmlns="http://www.w3.org/2000/svg">
<path d="M265.728 -47H87.2721C64.1261 -47 41.9282 -37.8052 25.5615 -21.4385C9.19475 -5.07182 0 17.1261 0 40.2722V217.506C0.0129539 240.648 9.21158 262.838 25.5755 279.202C41.9394 295.566 64.13 304.765 87.2721 304.778H265.728C288.87 304.765 311.061 295.566 327.425 279.202C343.788 262.838 352.987 240.648 353 217.506V40.2722C353 17.1261 343.805 -5.07182 327.439 -21.4385C311.072 -37.8052 288.874 -47 265.728 -47ZM70.5511 171.205C33.4421 129.353 35.9844 32.9873 100.131 2.08754C132.302 -12.5801 164.375 18.173 145.894 41.6901C100.033 99.676 70.4532 168.809 70.4532 171.205H70.5511ZM91.5746 171.205C97.735 157.613 139.586 71.2208 181.585 30.4938C226.125 -13.9002 319.949 79.9236 275.408 124.318C233.41 166.316 147.018 208.314 134.697 214.474C113.576 223.128 82.774 192.18 91.4767 171.205H91.5746ZM302.592 205.772C273.257 270.065 176.696 272.46 134.697 235.449C137.191 235.449 206.373 205.772 264.359 161.378C287.631 141.625 317.309 174.97 302.495 205.772H302.592Z" fill="white" fill-opacity="0.2"/>
</svg>
